# xmcd CD Database Entry
#
# Track frame offsets:
# 150
# 780
# 14156
# 36212
# 53005
# 75240
# 97747
# 113625
# 137930
# 156996
# 175455
# 191613
# 207696
# 234860
# 288076
#
# Disc length: 4101 seconds
#
# Revision: 4
# Processed by: cddbd v1.4PL0 Copyright (c) Steve Scherf et al.
# Submitted via: tcd 2.0b
#
DISCID=ba10030f
DTITLE=Ben Harper/ For Your Mind
DYEAR=1900
DGENRE=
TTITLE0=Traccia 1
TTITLE1=Oppression
TTITLE2=Ground on Down
TTITLE3=Another Lonely Day
TTITLE4=Please Me Like You Wanto To
TTITLE5=Gold to Me
TTITLE6=Burn one down
TTITLE7=Excuse Me Mr.
TTITLE8=People Lead
TTITLE9=Fight for your mind
TTITLE10=Give a man a home
TTITLE11=By my side
TTITLE12=Power of the Gospel
TTITLE13=God fearing man
TTITLE14=One road to freedom
EXTD=
EXTT0=
EXTT1=
EXTT2=
EXTT3=
EXTT4=
EXTT5=
EXTT6=
EXTT7=
EXTT8=
EXTT9=
EXTT10=
EXTT11=
EXTT12=
EXTT13=
EXTT14=
PLAYORDER=
